<svg xmlns="http://www.w3.org/2000/svg" viewBox="0 0 512 512">
  <path d="M472.178 34.62H39.822C17.864 34.62 0 52.485 0 74.442v363.115c0 21.958 17.864 39.822 39.822 39.822h432.356c21.958 0 39.822-17.864 39.822-39.822V74.442c0-21.957-17.864-39.822-39.822-39.822zm5.689 402.937a5.695 5.695 0 01-5.689 5.689H39.822a5.695 5.695 0 01-5.689-5.689V153.839h443.733v283.718zm0-317.851H34.133V74.442a5.695 5.695 0 015.689-5.689h432.356a5.695 5.695 0 015.689 5.689v45.264z"/>
  <circle cx="71.805" cy="94.231" r="12.836"/>
  <circle cx="112.959" cy="94.231" r="12.836"/>
  <circle cx="154.112" cy="94.231" r="12.836"/>
  <path d="M263.523 330.201l73.698 73.698c6.664 6.665 17.471 6.666 24.136 0 6.665-6.665 6.665-17.471 0-24.136l-73.698-73.698c18.695-29.706 15.142-69.506-10.702-95.348-29.991-29.992-78.791-29.991-108.783 0-29.992 29.991-29.992 78.791 0 108.783 25.645 25.644 65.364 29.57 95.349 10.701zm-71.213-95.348c16.684-16.683 43.827-16.683 60.512 0 16.683 16.683 16.683 43.828 0 60.51-16.683 16.683-43.828 16.683-60.512 0-16.684-16.681-16.684-43.828 0-60.51z"/>
</svg>
