<svg id="Layer_1" data-name="Layer 1" xmlns="http://www.w3.org/2000/svg" viewBox="0 0 109 122.88"><defs><style>.cls-1{fill-rule:evenodd;}</style></defs><title>node-js-black</title><path class="cls-1" d="M68.43,87.08c-19.7,0-23.83-9-23.83-16.63a1.3,1.3,0,0,1,1.3-1.3h5.82A1.3,1.3,0,0,1,53,70.25c.88,5.93,3.49,8.92,15.41,8.92C77.9,79.17,81.93,77,81.93,72c0-2.9-1.15-5-15.89-6.49-12.33-1.22-20-3.93-20-13.8,0-9.08,7.66-14.49,20.5-14.49,14.42,0,21.56,5,22.46,15.76a1.31,1.31,0,0,1-.35,1,1.35,1.35,0,0,1-1,.42H81.9a1.29,1.29,0,0,1-1.26-1c-1.41-6.23-4.81-8.23-14.07-8.23C56.21,45.15,55,48.76,55,51.46c0,3.28,1.42,4.24,15.4,6.09S90.82,62,90.82,71.71,82.64,87.14,68.37,87.14l.06-.06Zm-13.91,35.8a9.45,9.45,0,0,1-4.72-1.26l-15-8.9c-2.25-1.26-1.15-1.7-.41-2a30.38,30.38,0,0,0,6.8-3.1,1.15,1.15,0,0,1,1.12.08l11.55,6.85a1.51,1.51,0,0,0,1.4,0l45-26a1.42,1.42,0,0,0,.69-1.22V35.43a1.44,1.44,0,0,0-.7-1.24l-45-26a1.38,1.38,0,0,0-1.39,0l-45,26a1.42,1.42,0,0,0-.71,1.23v52a1.39,1.39,0,0,0,.7,1.21l12.33,7.12C27.85,99.06,32,95.11,32,91.15V39.86a1.29,1.29,0,0,1,1.31-1.3H39a1.29,1.29,0,0,1,1.3,1.3V91.17c0,8.93-4.87,14-13.33,14-2.6,0-4.66,0-10.38-2.82L4.72,95.59A9.51,9.51,0,0,1,0,87.38v-52a9.47,9.47,0,0,1,4.72-8.21l45.07-26a9.89,9.89,0,0,1,9.47,0l45,26A9.49,9.49,0,0,1,109,35.43v52a9.54,9.54,0,0,1-4.72,8.21l-45,26a9.5,9.5,0,0,1-4.74,1.26v0Zm0,0Z"/></svg>